<?xml version="1.0" standalone="no"?>
<!DOCTYPE svg PUBLIC "-//W3C//DTD SVG 20010904//EN"
 "http://www.w3.org/TR/2001/REC-SVG-20010904/DTD/svg10.dtd">
<svg version="1.0" xmlns="http://www.w3.org/2000/svg"
 width="128.000000pt" height="129.000000pt" viewBox="0 0 128.000000 129.000000"
 preserveAspectRatio="xMidYMid meet">

<g transform="translate(0.000000,129.000000) scale(0.100000,-0.100000)"
fill="#000000" stroke="none">
<path d="M302 741 c-9 -5 11 -10 53 -13 36 -3 69 -8 72 -11 3 -3 -4 -37 -15
-74 -12 -37 -24 -88 -27 -113 l-6 -45 19 22 c11 13 18 31 15 41 -2 11 7 54 22
97 14 43 24 79 22 81 -5 5 -106 24 -126 24 -9 0 -22 -4 -29 -9z"/>
<path d="M585 726 c-13 -13 -25 -22 -28 -20 -2 2 -21 -15 -43 -39 l-39 -42 43
40 c47 43 51 41 23 -13 -10 -20 -22 -56 -26 -79 -10 -65 23 -107 54 -69 10 12
8 13 -8 9 -17 -4 -21 0 -22 18 -3 75 13 129 57 186 29 39 24 43 -11 9z"/>
<path d="M812 741 c-9 -5 11 -10 51 -13 78 -7 93 -14 76 -35 -7 -8 -14 -22
-15 -31 -1 -10 -9 -44 -18 -77 -9 -32 -16 -68 -16 -80 1 -19 1 -19 19 2 11 13
17 31 14 41 -2 11 7 54 22 97 14 43 24 79 22 81 -5 5 -106 24 -126 24 -9 0
-22 -4 -29 -9z"/>
<path d="M1095 726 c-13 -13 -25 -22 -28 -20 -2 2 -21 -15 -43 -39 l-39 -42
43 40 c47 44 51 41 23 -13 -42 -83 -33 -178 15 -157 17 7 18 8 2 12 -42 10
-19 135 38 210 29 39 24 43 -11 9z"/>
<path d="M110 591 c-17 -32 -12 -58 16 -80 52 -41 137 -16 209 61 l40 42 -53
-47 c-60 -52 -116 -73 -155 -58 -32 13 -51 46 -43 77 8 29 1 31 -14 5z"/>
<path d="M620 591 c-17 -32 -12 -58 16 -80 52 -41 137 -16 209 61 l40 42 -53
-47 c-60 -52 -116 -73 -155 -58 -32 13 -51 46 -43 77 8 29 1 31 -14 5z"/>
</g>
</svg>
